<?xml version="1.0" encoding="UTF-8"?>
<svg width="235px" height="223px" viewBox="0 0 235 223" version="1.1" xmlns="http://www.w3.org/2000/svg" xmlns:xlink="http://www.w3.org/1999/xlink">
    <!-- Generator: Sketch 61.2 (89653) - https://sketch.com -->
    <title>BF</title>
    <desc>Created with Sketch.</desc>
    <defs>
        <polygon id="path-1" points="0.00100513116 0.159302326 139.12128 0.159302326 139.12128 268.802025 0.00100513116 268.802025"></polygon>
    </defs>
    <g id="Enwurf" stroke="none" stroke-width="1" fill="none" fill-rule="evenodd">
        <g id="Bruno_Startseite1440" transform="translate(-616.000000, -243.000000)">
            <g id="BF" transform="translate(589.000000, 217.000000)">
                <g id="Group-6" transform="translate(0.000000, 3.000000)">
                    <g id="Group-5" transform="translate(0.000000, 0.037733)">
                        <mask id="mask-2" fill="white">
                            <use xlink:href="#path-1"></use>
                        </mask>
                        <g id="Clip-4"></g>
                    </g>
                </g>
                <g id="Logo-BF-09" transform="translate(26.000000, 26.000000)" fill="#FFFFFF">
                    <path d="M128.856,0.843294118 L235.239556,1.37035294 L235.239556,46.9082353 L231.778222,46.2757647 C231.778222,32.3614118 224.383556,22.6108235 209.594222,17.024 C194.804889,11.4371765 172.306222,8.64376471 142.098222,8.64376471 L142.098222,98.5863529 C154.335259,98.1647059 163.827704,97.4795294 170.575556,96.5308235 C176.237549,96.0533718 181.648189,93.969715 186.177778,90.5223529 C189.392405,88.005566 191.710509,84.5110765 192.785778,80.5609412 C193.147824,78.9992848 193.401913,77.4143229 193.546222,75.8174118 C193.546222,75.8174118 197.820444,75.1849412 197.820444,75.1849412 L197.820444,127.890824 C197.820444,127.890824 193.362667,127.152941 193.362667,127.021176 C193.196039,125.308908 192.91571,123.609748 192.523556,121.935059 C192.190289,120.43702 191.697988,118.979259 191.055111,117.586824 C189.062222,113.370353 184.447111,110.208 177.209778,108.099765 C169.972444,105.991529 158.277333,105.200941 142.124444,104.779294 L142.124444,151.265882 C142.124444,181.202824 143.724,197.488941 146.215111,203.760941 C147.980034,209.432925 152.115711,214.05103 157.543111,216.410353 C165.573944,218.3673 173.82616,219.253342 182.087111,219.045647 L182.716444,222.234353 L128.436444,222.234353 L128.856,0.843294118 Z" id="Path" fill-rule="nonzero"></path>
                    <path d="M115.692444,0.869647059 L92.4333333,0.869647059 C85.8792013,0.682118762 79.3205893,1.01697125 72.8191111,1.87105882 C45.4693333,6.08752941 33.4857778,14.7312941 27.9791111,20.7661176 C14.7871761,36.1968353 13.0175507,58.4220982 23.6,75.7647059 C33.0662222,91.5764706 49.8222222,98.112 56.9022222,100.220235 L59.1835556,100.8 L60.3373333,101.116235 L59.1835556,101.300706 C59.1835556,101.300706 24.6751111,105.675294 9.93822222,130.710588 C1.01784167,145.851274 -0.777463397,164.183274 5.03466667,180.781176 C12.8417573,199.904341 29.1870725,214.191062 49.1142222,219.309176 C59.9940318,221.324923 71.0388472,222.304324 82.1017778,222.234353 L115.692444,222.234353 C115.692444,222.234353 115.692444,0.869647059 115.692444,0.869647059 Z M102.555111,155.482353 C102.555111,178.462118 101.558667,192.086588 100.195111,199.149176 C98.8315556,206.211765 92.3284444,215.303529 83.6751111,216.094118 C56.9022222,218.518588 43.5551111,207.213176 41.8506667,205.816471 C35.2682035,200.213485 29.7663148,193.442529 25.6191111,185.840941 C21.591917,177.908543 19.4893158,169.131122 19.4831111,160.225882 C19.4831111,123.331765 45.6004444,104.884706 97.8351111,104.884706 L102.555111,104.884706 L102.555111,155.482353 Z M102.555111,98.56 L99.6444444,98.56 C56.64,98.56 35.1377778,82.6428235 35.1377778,50.8084706 C35.1377778,22.3472941 57.4004444,8.64376471 102.292889,8.64376471 L102.555111,98.56 Z" id="Shape" fill-rule="nonzero"></path>
                </g>
            </g>
        </g>
    </g>
</svg>