<?xml version="1.0" standalone="no"?>
<!DOCTYPE svg PUBLIC "-//W3C//DTD SVG 20010904//EN"
 "http://www.w3.org/TR/2001/REC-SVG-20010904/DTD/svg10.dtd">
<svg version="1.0" xmlns="http://www.w3.org/2000/svg"
 width="411.000000pt" height="411.000000pt" viewBox="0 0 411.000000 411.000000"
 preserveAspectRatio="xMidYMid meet">

<g transform="translate(0.000000,411.000000) scale(0.100000,-0.100000)"
fill="#000000" stroke="none">
<rect transform="translate(1000, 1900)" width="2200" height="2200"
  fill="#ffffff" />

<path d="M932 2968 l3 -1143 1134 -3 c679 -1 1138 2 1145 7 8 7 10 324 8 1145
l-2 1136 -1145 0 -1145 0 2 -1142z m1642 7 c272 -544 494 -990 492 -992 -1 -2
-448 -2 -993 -1 l-990 3 494 994 c271 547 495 992 497 990 2 -2 227 -449 500
-994z" fill="#e1001a"/>

<path d="M1648 2913 l-416 -838 841 -3 c462 -1 842 -1 843 1 7 6 -832 1675
-842 1676 -5 1 -197 -376 -426 -836z m472 482 l0 -165 -45 0 -45 0 0 165 0
165 45 0 45 0 0 -165z m73 -251 c51 -17 123 -76 149 -122 l18 -29 -45 -18 -45
-17 -46 41 c-117 102 -282 72 -345 -64 -36 -77 -16 -188 42 -242 79 -73 223
-70 302 5 34 32 60 79 52 92 -3 6 -49 10 -101 10 l-94 0 0 45 0 45 156 0 157
0 -5 -64 c-9 -110 -76 -209 -175 -257 -69 -34 -179 -38 -254 -10 -66 25 -137
91 -169 156 -71 147 -7 337 139 412 55 29 72 33 140 33 44 0 97 -7 124 -16z
m-295 -678 c96 -114 178 -206 183 -204 5 2 92 107 195 233 102 127 189 231
192 232 6 2 300 -545 310 -577 2 -6 -19 -10 -55 -10 l-58 1 -101 191 c-55 106
-105 193 -111 195 -6 2 -82 -84 -168 -192 l-157 -195 -48 0 -49 0 -167 195
c-92 107 -170 195 -174 195 -4 0 -52 -88 -106 -195 l-99 -195 -58 0 -58 0 115
223 c63 122 132 255 153 295 l38 73 25 -29 c14 -15 103 -121 198 -236z" fill="#e1001a"/>
<path d="M490 2083 c-123 -20 -400 -175 -400 -223 0 -26 20 -30 60 -10 63 31
250 70 337 70 93 0 198 -28 240 -64 l27 -23 -22 -109 c-32 -155 -75 -280 -148
-429 -78 -161 -148 -268 -238 -362 -70 -75 -125 -103 -198 -103 -36 0 -37 -23
-2 -93 48 -94 61 -107 107 -107 59 0 116 32 191 108 162 163 341 505 408 780
28 115 30 267 5 339 -25 70 -69 128 -124 163 -66 42 -184 73 -243 63z" fill="#ffffff"/>
<path d="M3587 1802 c-9 -10 -17 -29 -17 -43 0 -13 -11 -64 -25 -114 -80 -285
-96 -376 -76 -427 13 -35 49 -37 79 -5 34 37 80 144 102 244 47 202 6 422 -63
345z" fill="#ffffff"/>
<path d="M2992 1613 c-84 -140 -106 -199 -110 -301 -5 -106 -12 -115 -91 -128
-41 -7 -44 -6 -37 12 27 68 11 114 -39 114 -56 0 -83 -121 -47 -202 26 -59 60
-83 108 -75 44 7 60 20 85 69 23 46 39 48 62 8 18 -30 56 -48 76 -35 16 9 13
41 -4 55 -8 7 -20 29 -26 50 -12 39 -7 56 90 317 30 83 41 149 27 171 -4 7
-18 12 -30 12 -18 0 -33 -15 -64 -67z" fill="#ffffff"/>
<path d="M2054 1426 c-44 -20 -101 -72 -151 -141 -51 -68 -64 -78 -119 -95
-37 -11 -43 -10 -78 14 -22 14 -49 26 -61 26 -13 0 -33 8 -45 18 -20 16 -21
19 -6 31 14 11 24 12 57 2 36 -11 43 -10 60 5 36 33 15 80 -51 114 -50 25 -96
25 -137 0 -85 -51 -98 -208 -23 -275 17 -15 37 -20 79 -20 l56 0 -1 -52 c-2
-67 -53 -178 -114 -248 -24 -27 -83 -83 -132 -124 -48 -40 -88 -79 -88 -86 0
-50 58 -115 102 -115 8 0 50 26 94 58 142 105 225 245 249 425 5 39 11 50 32
58 14 5 43 23 63 39 l37 29 31 -44 c46 -65 66 -62 180 30 51 41 97 75 103 75
5 0 19 -20 31 -45 29 -60 54 -66 115 -27 87 55 97 57 137 15 33 -35 36 -36 60
-23 14 7 28 21 31 30 8 24 -11 70 -43 103 -29 30 -59 34 -144 16 -47 -10 -53
-10 -63 6 -5 10 -21 31 -35 47 -33 38 -58 32 -161 -38 -76 -52 -99 -63 -99
-46 0 16 26 40 87 81 70 47 93 74 93 112 0 54 -73 76 -146 45z m66 -56 c0 -5
-9 -19 -21 -31 -25 -25 -111 -80 -117 -75 -9 10 33 58 76 86 48 32 62 36 62
20z" fill="#ffffff"/>
<path d="M967 1407 c-55 -54 -75 -214 -37 -293 26 -53 61 -77 100 -69 34 7 80
56 100 106 30 77 79 94 103 37 18 -42 50 -71 74 -66 27 5 63 84 63 139 0 39
-5 51 -26 68 -40 31 -74 26 -178 -29 -97 -51 -123 -58 -157 -40 -23 13 -24 43
-4 101 13 37 14 45 1 57 -12 13 -18 11 -39 -11z" fill="#ffffff"/>
<path d="M3400 1074 c-13 -33 -13 -53 1 -95 38 -111 139 -148 139 -50 -1 69
-67 171 -112 171 -11 0 -23 -11 -28 -26z" fill="#ffffff"/>
<path d="M1900 384 c-344 -30 -541 -63 -782 -133 -204 -58 -261 -90 -223 -121
11 -9 26 -9 62 -1 90 20 478 81 663 103 165 20 233 22 630 22 393 0 467 -2
635 -21 374 -43 536 -56 547 -45 20 20 0 41 -54 57 -137 40 -492 103 -718 126
-105 10 -675 20 -760 13z" fill="#fff500"/>
</g>
</svg>
