<?xml version="1.0" encoding="UTF-8"?>
<svg width="34px" height="34px" viewBox="0 0 34 34" version="1.1" xmlns="http://www.w3.org/2000/svg" xmlns:xlink="http://www.w3.org/1999/xlink">
    <!-- Generator: Sketch 61.2 (89653) - https://sketch.com -->
    <title>Fullscreen</title>
    <desc>Created with Sketch.</desc>
    <g id="Enwurf" stroke="none" stroke-width="1" fill="none" fill-rule="evenodd" stroke-linecap="round">
        <g transform="translate(-1103.000000, -809.000000)" stroke="#FFFFFF">
            <g id="Fullscreen" transform="translate(1102.000000, 808.000000)">
                <g id="Group-2" transform="translate(0.000000, 0.000000)">
                    <g id="pfeil" transform="translate(28.216216, 7.789474) rotate(-45.000000) translate(-28.216216, -7.789474) translate(20.432432, 4.868421)">
                        <line x1="15.0810811" y1="2.92105263" x2="0.0551097973" y2="2.92105263" id="Line"></line>
                        <polyline id="Rectangle" transform="translate(12.666939, 2.921053) rotate(-45.000000) translate(-12.666939, -2.921053) " points="14.6143078 0.973684211 14.6128853 4.86699858 10.719571 4.86842105"></polyline>
                    </g>
                    <g id="pfeil" transform="translate(7.783784, 7.789474) scale(-1, 1) rotate(-45.000000) translate(-7.783784, -7.789474) translate(0.000000, 4.868421)">
                        <line x1="15.0810811" y1="2.92105263" x2="0.0551097973" y2="2.92105263" id="Line"></line>
                        <polyline id="Rectangle" transform="translate(12.666939, 2.921053) rotate(-45.000000) translate(-12.666939, -2.921053) " points="14.6143078 0.973684211 14.6128853 4.86699858 10.719571 4.86842105"></polyline>
                    </g>
                </g>
                <g id="Group-2" transform="translate(18.000000, 28.452830) scale(1, -1) translate(-18.000000, -28.452830) translate(0.000000, 20.663356)">
                    <g id="pfeil" transform="translate(28.216216, 7.789474) rotate(-45.000000) translate(-28.216216, -7.789474) translate(20.432432, 4.868421)">
                        <line x1="15.0810811" y1="2.92105263" x2="0.0551097973" y2="2.92105263" id="Line"></line>
                        <polyline id="Rectangle" transform="translate(12.666939, 2.921053) rotate(-45.000000) translate(-12.666939, -2.921053) " points="14.6143078 0.973684211 14.6128853 4.86699858 10.719571 4.86842105"></polyline>
                    </g>
                    <g id="pfeil" transform="translate(7.783784, 7.789474) scale(-1, 1) rotate(-45.000000) translate(-7.783784, -7.789474) translate(0.000000, 4.868421)">
                        <line x1="15.0810811" y1="2.92105263" x2="0.0551097973" y2="2.92105263" id="Line"></line>
                        <polyline id="Rectangle" transform="translate(12.666939, 2.921053) rotate(-45.000000) translate(-12.666939, -2.921053) " points="14.6143078 0.973684211 14.6128853 4.86699858 10.719571 4.86842105"></polyline>
                    </g>
                </g>
            </g>
        </g>
    </g>
</svg>
